<mxfile host="app.diagrams.net" agent="Mozilla/5.0 (Macintosh; Intel Mac OS X 10_15_7) AppleWebKit/537.36 (KHTML, like Gecko) Chrome/136.0.0.0 Safari/537.36 Edg/136.0.0.0" version="27.0.6">
  <diagram name="Page-1" id="DCnCMCrqv5K_H_qj_yAR">
    <mxGraphModel dx="1210" dy="728" grid="1" gridSize="10" guides="1" tooltips="1" connect="1" arrows="1" fold="1" page="1" pageScale="1" pageWidth="850" pageHeight="1100" math="0" shadow="0">
      <root>
        <mxCell id="0" />
        <mxCell id="1" parent="0" />
        <mxCell id="ETPYfLb9KWtuhLKlR4Qi-1" value="" style="rounded=0;whiteSpace=wrap;html=1;" parent="1" vertex="1">
          <mxGeometry x="350" y="350" width="210" height="130" as="geometry" />
        </mxCell>
        <mxCell id="ETPYfLb9KWtuhLKlR4Qi-2" value="&lt;font style=&quot;font-size: 14px;&quot;&gt;1. Movie&lt;/font&gt;" style="text;html=1;align=center;verticalAlign=middle;whiteSpace=wrap;rounded=0;" parent="1" vertex="1">
          <mxGeometry x="425" y="310" width="60" height="30" as="geometry" />
        </mxCell>
        <mxCell id="ETPYfLb9KWtuhLKlR4Qi-3" value="&lt;pre lang=&quot;java&quot; class=&quot;code highlight&quot;&gt;&lt;font face=&quot;Helvetica&quot; style=&quot;font-size: 14px;&quot;&gt;&lt;span style=&quot;&quot; class=&quot;&quot;&gt; &lt;/span&gt;&lt;span style=&quot;&quot; class=&quot;hljs-type&quot;&gt;int&lt;/span&gt;&lt;span style=&quot;&quot; class=&quot;&quot;&gt; movieId;&lt;/span&gt;&lt;br&gt;&lt;span style=&quot;&quot; class=&quot;&quot;&gt;    String movieName;&lt;/span&gt;&lt;br&gt;&lt;span style=&quot;&quot; class=&quot;&quot;&gt;    &lt;/span&gt;&lt;span style=&quot;&quot; class=&quot;hljs-type&quot;&gt;int&lt;/span&gt;&lt;span style=&quot;&quot; class=&quot;&quot;&gt; movieDurationInMinutes;&lt;/span&gt;&lt;/font&gt;&lt;br&gt;&lt;/pre&gt;" style="text;html=1;align=center;verticalAlign=middle;whiteSpace=wrap;rounded=0;" parent="1" vertex="1">
          <mxGeometry x="360" y="360" width="180" height="60" as="geometry" />
        </mxCell>
        <mxCell id="ETPYfLb9KWtuhLKlR4Qi-4" value="" style="rounded=0;whiteSpace=wrap;html=1;" parent="1" vertex="1">
          <mxGeometry x="50" y="560" width="260" height="130" as="geometry" />
        </mxCell>
        <mxCell id="ETPYfLb9KWtuhLKlR4Qi-5" value="&lt;font style=&quot;font-size: 14px;&quot;&gt;2. MovieContoller&lt;/font&gt;" style="text;html=1;align=center;verticalAlign=middle;whiteSpace=wrap;rounded=0;" parent="1" vertex="1">
          <mxGeometry x="130" y="520" width="130" height="30" as="geometry" />
        </mxCell>
        <mxCell id="ETPYfLb9KWtuhLKlR4Qi-6" value="&lt;pre lang=&quot;java&quot; class=&quot;code highlight&quot;&gt;&lt;font style=&quot;font-size: 14px;&quot; face=&quot;Helvetica&quot;&gt;&lt;span class=&quot;&quot;&gt;Map&amp;lt;City, List&amp;lt;Movie&amp;gt;&amp;gt; cityVsMovies;&lt;/span&gt;&lt;br/&gt;&lt;span class=&quot;&quot;&gt;    List&amp;lt;Movie&amp;gt; allMovies;&lt;/span&gt;&lt;/font&gt;&lt;br/&gt;&lt;/pre&gt;" style="text;html=1;align=center;verticalAlign=middle;whiteSpace=wrap;rounded=0;" parent="1" vertex="1">
          <mxGeometry x="90" y="570" width="180" height="60" as="geometry" />
        </mxCell>
        <mxCell id="ETPYfLb9KWtuhLKlR4Qi-8" value="" style="line;strokeWidth=2;html=1;" parent="1" vertex="1">
          <mxGeometry x="50" y="620" width="260" height="10" as="geometry" />
        </mxCell>
        <mxCell id="ETPYfLb9KWtuhLKlR4Qi-12" value="&lt;font style=&quot;font-size: 14px;&quot;&gt;//Crud Operation&lt;/font&gt;" style="text;html=1;align=center;verticalAlign=middle;whiteSpace=wrap;rounded=0;" parent="1" vertex="1">
          <mxGeometry x="120" y="640" width="110" height="30" as="geometry" />
        </mxCell>
        <mxCell id="ETPYfLb9KWtuhLKlR4Qi-16" value="" style="edgeStyle=elbowEdgeStyle;elbow=horizontal;endArrow=classic;html=1;curved=0;rounded=0;endSize=8;startSize=8;entryX=0;entryY=0.385;entryDx=0;entryDy=0;entryPerimeter=0;exitX=0.25;exitY=0;exitDx=0;exitDy=0;" parent="1" source="ETPYfLb9KWtuhLKlR4Qi-5" target="ETPYfLb9KWtuhLKlR4Qi-1" edge="1">
          <mxGeometry width="50" height="50" relative="1" as="geometry">
            <mxPoint x="160" y="480" as="sourcePoint" />
            <mxPoint x="450" y="500" as="targetPoint" />
            <Array as="points">
              <mxPoint x="160" y="440" />
            </Array>
          </mxGeometry>
        </mxCell>
        <mxCell id="ETPYfLb9KWtuhLKlR4Qi-25" value="" style="edgeStyle=orthogonalEdgeStyle;rounded=0;orthogonalLoop=1;jettySize=auto;html=1;" parent="1" source="ETPYfLb9KWtuhLKlR4Qi-17" target="ETPYfLb9KWtuhLKlR4Qi-20" edge="1">
          <mxGeometry relative="1" as="geometry" />
        </mxCell>
        <mxCell id="ETPYfLb9KWtuhLKlR4Qi-17" value="" style="rounded=0;whiteSpace=wrap;html=1;" parent="1" vertex="1">
          <mxGeometry x="660" y="100" width="300" height="130" as="geometry" />
        </mxCell>
        <mxCell id="ETPYfLb9KWtuhLKlR4Qi-18" value="&lt;font style=&quot;font-size: 14px;&quot;&gt;3.Theatre&lt;/font&gt;" style="text;html=1;align=center;verticalAlign=middle;whiteSpace=wrap;rounded=0;" parent="1" vertex="1">
          <mxGeometry x="780" y="60" width="60" height="30" as="geometry" />
        </mxCell>
        <mxCell id="ETPYfLb9KWtuhLKlR4Qi-19" value="&lt;pre lang=&quot;java&quot; class=&quot;code highlight&quot;&gt;&lt;font style=&quot;font-size: 14px;&quot; face=&quot;Helvetica&quot;&gt;&lt;span class=&quot;hljs-type&quot;&gt;int&lt;/span&gt;&lt;span class=&quot;&quot;&gt; theatreId;&lt;/span&gt;&lt;br/&gt;&lt;span class=&quot;&quot;&gt;    String address;&lt;/span&gt;&lt;br/&gt;&lt;span class=&quot;&quot;&gt;    City city;&lt;/span&gt;&lt;br/&gt;&lt;span class=&quot;&quot;&gt;    List&amp;lt;Screen&amp;gt; screen = &lt;/span&gt;&lt;span class=&quot;hljs-keyword&quot;&gt;new&lt;/span&gt;&lt;span class=&quot;&quot;&gt; &lt;/span&gt;&lt;span class=&quot;hljs-title.class&quot;&gt;ArrayList&lt;/span&gt;&lt;span class=&quot;&quot;&gt;&amp;lt;&amp;gt;();&lt;/span&gt;&lt;br/&gt;&lt;span class=&quot;&quot;&gt;    List&amp;lt;Show&amp;gt; shows = &lt;/span&gt;&lt;span class=&quot;hljs-keyword&quot;&gt;new&lt;/span&gt;&lt;span class=&quot;&quot;&gt; &lt;/span&gt;&lt;span class=&quot;hljs-title.class&quot;&gt;ArrayList&lt;/span&gt;&lt;span class=&quot;&quot;&gt;&amp;lt;&amp;gt;();&lt;/span&gt;&lt;/font&gt;&lt;br/&gt;&lt;/pre&gt;" style="text;html=1;align=center;verticalAlign=middle;whiteSpace=wrap;rounded=0;" parent="1" vertex="1">
          <mxGeometry x="650" y="100" width="300" height="90" as="geometry" />
        </mxCell>
        <mxCell id="pJwXMXjySB6yTYnMx7kK-9" value="" style="edgeStyle=orthogonalEdgeStyle;rounded=0;orthogonalLoop=1;jettySize=auto;html=1;" edge="1" parent="1" source="ETPYfLb9KWtuhLKlR4Qi-20" target="pJwXMXjySB6yTYnMx7kK-6">
          <mxGeometry relative="1" as="geometry" />
        </mxCell>
        <mxCell id="ETPYfLb9KWtuhLKlR4Qi-20" value="" style="rounded=0;whiteSpace=wrap;html=1;" parent="1" vertex="1">
          <mxGeometry x="1070" y="110" width="250" height="90" as="geometry" />
        </mxCell>
        <mxCell id="ETPYfLb9KWtuhLKlR4Qi-21" value="&lt;font style=&quot;font-size: 14px;&quot;&gt;4. Screen&lt;/font&gt;" style="text;html=1;align=center;verticalAlign=middle;whiteSpace=wrap;rounded=0;" parent="1" vertex="1">
          <mxGeometry x="1150" y="60" width="80" height="30" as="geometry" />
        </mxCell>
        <mxCell id="ETPYfLb9KWtuhLKlR4Qi-22" value="&lt;pre lang=&quot;java&quot; class=&quot;code highlight&quot;&gt;&lt;font style=&quot;font-size: 14px;&quot; face=&quot;Helvetica&quot;&gt;&lt;span class=&quot;hljs-type&quot;&gt;int&lt;/span&gt;&lt;span class=&quot;&quot;&gt; screenId;&lt;/span&gt;&lt;br/&gt;&lt;span class=&quot;&quot;&gt;    List&amp;lt;Seat&amp;gt; seats = &lt;/span&gt;&lt;span class=&quot;hljs-keyword&quot;&gt;new&lt;/span&gt;&lt;span class=&quot;&quot;&gt; &lt;/span&gt;&lt;span class=&quot;hljs-title.class&quot;&gt;ArrayList&lt;/span&gt;&lt;span class=&quot;&quot;&gt;&amp;lt;&amp;gt;();&lt;/span&gt;&lt;/font&gt;&lt;br/&gt;&lt;/pre&gt;" style="text;html=1;align=center;verticalAlign=middle;whiteSpace=wrap;rounded=0;" parent="1" vertex="1">
          <mxGeometry x="1100" y="120" width="180" height="60" as="geometry" />
        </mxCell>
        <mxCell id="pJwXMXjySB6yTYnMx7kK-1" value="" style="rounded=0;whiteSpace=wrap;html=1;" vertex="1" parent="1">
          <mxGeometry x="660" y="500" width="330" height="130" as="geometry" />
        </mxCell>
        <mxCell id="pJwXMXjySB6yTYnMx7kK-2" value="&lt;font style=&quot;font-size: 14px;&quot;&gt;5.Show&lt;/font&gt;" style="text;html=1;align=center;verticalAlign=middle;whiteSpace=wrap;rounded=0;" vertex="1" parent="1">
          <mxGeometry x="800" y="460" width="60" height="30" as="geometry" />
        </mxCell>
        <mxCell id="pJwXMXjySB6yTYnMx7kK-3" value="&lt;pre lang=&quot;java&quot; class=&quot;code highlight&quot;&gt;&lt;font style=&quot;font-size: 14px;&quot; face=&quot;Helvetica&quot;&gt;&lt;span class=&quot;hljs-type&quot;&gt;int&lt;/span&gt;&lt;span class=&quot;&quot;&gt; showId;&lt;/span&gt;&lt;br/&gt;&lt;span class=&quot;&quot;&gt;    Movie movie;&lt;/span&gt;&lt;br/&gt;&lt;span class=&quot;&quot;&gt;    Screen screen;&lt;/span&gt;&lt;br/&gt;&lt;span class=&quot;&quot;&gt;    &lt;/span&gt;&lt;span class=&quot;hljs-type&quot;&gt;int&lt;/span&gt;&lt;span class=&quot;&quot;&gt; showStartTime;&lt;/span&gt;&lt;br/&gt;&lt;span class=&quot;&quot;&gt;    List&amp;lt;Integer&amp;gt; bookedSeatIds = &lt;/span&gt;&lt;span class=&quot;hljs-keyword&quot;&gt;new&lt;/span&gt;&lt;span class=&quot;&quot;&gt; &lt;/span&gt;&lt;span class=&quot;hljs-title.class&quot;&gt;ArrayList&lt;/span&gt;&lt;span class=&quot;&quot;&gt;&amp;lt;&amp;gt;();&lt;/span&gt;&lt;/font&gt;&lt;br/&gt;&lt;/pre&gt;" style="text;html=1;align=center;verticalAlign=middle;whiteSpace=wrap;rounded=0;" vertex="1" parent="1">
          <mxGeometry x="670" y="500" width="300" height="90" as="geometry" />
        </mxCell>
        <mxCell id="pJwXMXjySB6yTYnMx7kK-4" value="" style="endArrow=classic;html=1;rounded=0;exitX=0.463;exitY=1;exitDx=0;exitDy=0;exitPerimeter=0;entryX=0.433;entryY=-0.022;entryDx=0;entryDy=0;entryPerimeter=0;" edge="1" parent="1" source="ETPYfLb9KWtuhLKlR4Qi-17" target="pJwXMXjySB6yTYnMx7kK-3">
          <mxGeometry width="50" height="50" relative="1" as="geometry">
            <mxPoint x="590" y="410" as="sourcePoint" />
            <mxPoint x="640" y="360" as="targetPoint" />
          </mxGeometry>
        </mxCell>
        <mxCell id="pJwXMXjySB6yTYnMx7kK-5" value="" style="edgeStyle=elbowEdgeStyle;elbow=horizontal;endArrow=classic;html=1;curved=0;rounded=0;endSize=8;startSize=8;entryX=1;entryY=0.4;entryDx=0;entryDy=0;entryPerimeter=0;" edge="1" parent="1" target="ETPYfLb9KWtuhLKlR4Qi-1">
          <mxGeometry width="50" height="50" relative="1" as="geometry">
            <mxPoint x="660" y="559" as="sourcePoint" />
            <mxPoint x="640" y="360" as="targetPoint" />
          </mxGeometry>
        </mxCell>
        <mxCell id="pJwXMXjySB6yTYnMx7kK-6" value="" style="rounded=0;whiteSpace=wrap;html=1;" vertex="1" parent="1">
          <mxGeometry x="1430" y="110" width="250" height="90" as="geometry" />
        </mxCell>
        <mxCell id="pJwXMXjySB6yTYnMx7kK-7" value="&lt;font style=&quot;font-size: 14px;&quot;&gt;6. Seat&lt;/font&gt;" style="text;html=1;align=center;verticalAlign=middle;whiteSpace=wrap;rounded=0;" vertex="1" parent="1">
          <mxGeometry x="1510" y="60" width="80" height="30" as="geometry" />
        </mxCell>
        <mxCell id="pJwXMXjySB6yTYnMx7kK-8" value="&lt;pre lang=&quot;java&quot; class=&quot;code highlight&quot;&gt;&lt;font face=&quot;Helvetica&quot; style=&quot;font-size: 14px;&quot;&gt;&lt;span class=&quot;hljs-type&quot;&gt;int&lt;/span&gt;&lt;span class=&quot;&quot;&gt; seatId;&lt;/span&gt;&lt;br/&gt;&lt;span class=&quot;&quot;&gt;    &lt;/span&gt;&lt;span class=&quot;hljs-type&quot;&gt;int&lt;/span&gt;&lt;span class=&quot;&quot;&gt; row;&lt;/span&gt;&lt;br/&gt;&lt;span class=&quot;&quot;&gt;    SeatCategory seatCategory;&lt;/span&gt;&lt;/font&gt;&lt;br/&gt;&lt;/pre&gt;" style="text;html=1;align=center;verticalAlign=middle;whiteSpace=wrap;rounded=0;" vertex="1" parent="1">
          <mxGeometry x="1460" y="120" width="180" height="60" as="geometry" />
        </mxCell>
        <mxCell id="pJwXMXjySB6yTYnMx7kK-11" value="&lt;pre lang=&quot;java&quot; class=&quot;code highlight&quot;&gt;&lt;font style=&quot;font-size: 14px;&quot; face=&quot;Helvetica&quot;&gt;&lt;span class=&quot;hljs-keyword&quot;&gt;enum&lt;/span&gt;&lt;span class=&quot;&quot;&gt; &lt;/span&gt;&lt;span class=&quot;hljs-title.class&quot;&gt;SeatCategory&lt;/span&gt;&lt;span class=&quot;&quot;&gt; {&lt;/span&gt;&lt;br&gt;&lt;br&gt;&lt;span class=&quot;&quot;&gt;    SILVER,&lt;/span&gt;&lt;br&gt;&lt;span class=&quot;&quot;&gt;    GOLD,&lt;/span&gt;&lt;br&gt;&lt;span class=&quot;&quot;&gt;    PLATINUM;&lt;/span&gt;&lt;br&gt;&lt;span class=&quot;&quot;&gt;}&lt;/span&gt;&lt;/font&gt;&lt;br&gt;&lt;/pre&gt;" style="text;html=1;align=center;verticalAlign=middle;whiteSpace=wrap;rounded=0;" vertex="1" parent="1">
          <mxGeometry x="1770" y="90" width="140" height="120" as="geometry" />
        </mxCell>
        <mxCell id="pJwXMXjySB6yTYnMx7kK-12" value="" style="rounded=0;whiteSpace=wrap;html=1;" vertex="1" parent="1">
          <mxGeometry x="180" y="60" width="260" height="130" as="geometry" />
        </mxCell>
        <mxCell id="pJwXMXjySB6yTYnMx7kK-13" value="&lt;font style=&quot;font-size: 14px;&quot;&gt;7. TheatreContoller&lt;/font&gt;" style="text;html=1;align=center;verticalAlign=middle;whiteSpace=wrap;rounded=0;" vertex="1" parent="1">
          <mxGeometry x="260" y="20" width="130" height="30" as="geometry" />
        </mxCell>
        <mxCell id="pJwXMXjySB6yTYnMx7kK-14" value="&lt;pre lang=&quot;java&quot; class=&quot;code highlight&quot;&gt;&lt;font style=&quot;font-size: 14px;&quot; face=&quot;Helvetica&quot;&gt;&lt;span class=&quot;&quot;&gt;Map&amp;lt;City, List&amp;lt;Theatre&amp;gt;&amp;gt; cityVsTheatre;&lt;/span&gt;&lt;br/&gt;&lt;span class=&quot;&quot;&gt;    List&amp;lt;Theatre&amp;gt; allTheatre;&lt;/span&gt;&lt;br/&gt;&lt;/font&gt;&lt;br/&gt;&lt;/pre&gt;" style="text;html=1;align=center;verticalAlign=middle;whiteSpace=wrap;rounded=0;" vertex="1" parent="1">
          <mxGeometry x="220" y="70" width="180" height="60" as="geometry" />
        </mxCell>
        <mxCell id="pJwXMXjySB6yTYnMx7kK-15" value="" style="line;strokeWidth=2;html=1;" vertex="1" parent="1">
          <mxGeometry x="180" y="110" width="260" height="20" as="geometry" />
        </mxCell>
        <mxCell id="pJwXMXjySB6yTYnMx7kK-16" value="&lt;font style=&quot;font-size: 14px;&quot;&gt;//Crud Operation&lt;/font&gt;" style="text;html=1;align=center;verticalAlign=middle;whiteSpace=wrap;rounded=0;" vertex="1" parent="1">
          <mxGeometry x="250" y="140" width="110" height="30" as="geometry" />
        </mxCell>
        <mxCell id="pJwXMXjySB6yTYnMx7kK-17" value="" style="edgeStyle=elbowEdgeStyle;elbow=horizontal;endArrow=classic;html=1;curved=0;rounded=0;endSize=8;startSize=8;exitX=1;exitY=0.5;exitDx=0;exitDy=0;exitPerimeter=0;" edge="1" parent="1" source="pJwXMXjySB6yTYnMx7kK-15">
          <mxGeometry width="50" height="50" relative="1" as="geometry">
            <mxPoint x="580" y="360" as="sourcePoint" />
            <mxPoint x="660" y="145" as="targetPoint" />
          </mxGeometry>
        </mxCell>
        <mxCell id="pJwXMXjySB6yTYnMx7kK-18" value="" style="rounded=0;whiteSpace=wrap;html=1;" vertex="1" parent="1">
          <mxGeometry x="370" y="740" width="300" height="130" as="geometry" />
        </mxCell>
        <mxCell id="pJwXMXjySB6yTYnMx7kK-19" value="&lt;font style=&quot;font-size: 14px;&quot;&gt;8. Booking&lt;/font&gt;" style="text;html=1;align=center;verticalAlign=middle;whiteSpace=wrap;rounded=0;" vertex="1" parent="1">
          <mxGeometry x="485" y="700" width="75" height="30" as="geometry" />
        </mxCell>
        <mxCell id="pJwXMXjySB6yTYnMx7kK-20" value="&lt;pre lang=&quot;java&quot; class=&quot;code highlight&quot;&gt;&lt;font style=&quot;font-size: 14px;&quot; face=&quot;Helvetica&quot;&gt;&lt;span class=&quot;&quot;&gt;Show show;&lt;/span&gt;&lt;br/&gt;&lt;span class=&quot;&quot;&gt;    List&amp;lt;Seat&amp;gt; bookedSeats = &lt;/span&gt;&lt;span class=&quot;hljs-keyword&quot;&gt;new&lt;/span&gt;&lt;span class=&quot;&quot;&gt; &lt;/span&gt;&lt;span class=&quot;hljs-title.class&quot;&gt;ArrayList&lt;/span&gt;&lt;span class=&quot;&quot;&gt;&amp;lt;&amp;gt;();&lt;/span&gt;&lt;br/&gt;&lt;span class=&quot;&quot;&gt;    Payment payment;&lt;/span&gt;&lt;br/&gt;&lt;/font&gt;&lt;br/&gt;&lt;/pre&gt;" style="text;html=1;align=center;verticalAlign=middle;whiteSpace=wrap;rounded=0;" vertex="1" parent="1">
          <mxGeometry x="420" y="750" width="180" height="60" as="geometry" />
        </mxCell>
        <mxCell id="pJwXMXjySB6yTYnMx7kK-21" value="" style="edgeStyle=segmentEdgeStyle;endArrow=classic;html=1;curved=0;rounded=0;endSize=8;startSize=8;entryX=0.576;entryY=1.015;entryDx=0;entryDy=0;entryPerimeter=0;exitX=1;exitY=0.5;exitDx=0;exitDy=0;" edge="1" parent="1" source="pJwXMXjySB6yTYnMx7kK-18" target="pJwXMXjySB6yTYnMx7kK-1">
          <mxGeometry width="50" height="50" relative="1" as="geometry">
            <mxPoint x="680" y="810" as="sourcePoint" />
            <mxPoint x="630" y="760" as="targetPoint" />
          </mxGeometry>
        </mxCell>
        <mxCell id="pJwXMXjySB6yTYnMx7kK-24" value="" style="rounded=0;whiteSpace=wrap;html=1;" vertex="1" parent="1">
          <mxGeometry x="450" y="990" width="150" height="60" as="geometry" />
        </mxCell>
        <mxCell id="pJwXMXjySB6yTYnMx7kK-25" value="&lt;span style=&quot;font-size: 14px;&quot;&gt;9. Payment&lt;/span&gt;" style="text;html=1;align=center;verticalAlign=middle;whiteSpace=wrap;rounded=0;" vertex="1" parent="1">
          <mxGeometry x="487.5" y="950" width="75" height="30" as="geometry" />
        </mxCell>
        <mxCell id="pJwXMXjySB6yTYnMx7kK-26" value="&lt;pre lang=&quot;java&quot; class=&quot;code highlight&quot;&gt;&lt;font face=&quot;Helvetica&quot;&gt;&lt;span style=&quot;font-size: 14px;&quot;&gt;int id&lt;/span&gt;&lt;/font&gt;&lt;/pre&gt;" style="text;html=1;align=center;verticalAlign=middle;whiteSpace=wrap;rounded=0;" vertex="1" parent="1">
          <mxGeometry x="425" y="990" width="180" height="40" as="geometry" />
        </mxCell>
        <mxCell id="pJwXMXjySB6yTYnMx7kK-28" value="" style="endArrow=classic;html=1;rounded=0;exitX=0.5;exitY=1;exitDx=0;exitDy=0;entryX=0.42;entryY=0.117;entryDx=0;entryDy=0;entryPerimeter=0;" edge="1" parent="1" source="pJwXMXjySB6yTYnMx7kK-18" target="pJwXMXjySB6yTYnMx7kK-25">
          <mxGeometry width="50" height="50" relative="1" as="geometry">
            <mxPoint x="580" y="930" as="sourcePoint" />
            <mxPoint x="630" y="880" as="targetPoint" />
          </mxGeometry>
        </mxCell>
        <mxCell id="pJwXMXjySB6yTYnMx7kK-29" value="&lt;pre lang=&quot;java&quot; class=&quot;code highlight&quot;&gt;&lt;font style=&quot;font-size: 14px;&quot; face=&quot;Helvetica&quot;&gt;&lt;span class=&quot;hljs-keyword&quot;&gt;enum&lt;/span&gt;&lt;span class=&quot;&quot;&gt; &lt;/span&gt;&lt;span class=&quot;hljs-title.class&quot;&gt;City&lt;/span&gt;&lt;span class=&quot;&quot;&gt; {&lt;/span&gt;&lt;br/&gt;&lt;span class=&quot;&quot;&gt;    Bangalore,&lt;/span&gt;&lt;br/&gt;&lt;span class=&quot;&quot;&gt;    Delhi;&lt;/span&gt;&lt;br/&gt;&lt;span class=&quot;&quot;&gt;}&lt;/span&gt;&lt;br/&gt;&lt;/font&gt;&lt;br/&gt;&lt;/pre&gt;" style="text;html=1;align=center;verticalAlign=middle;whiteSpace=wrap;rounded=0;" vertex="1" parent="1">
          <mxGeometry x="1790" y="240" width="100" height="80" as="geometry" />
        </mxCell>
      </root>
    </mxGraphModel>
  </diagram>
</mxfile>
